<svg width="22" height="22" viewBox="0 0 22 22" fill="inherit" xmlns="http://www.w3.org/2000/svg"><path fill-rule="evenodd" clip-rule="evenodd" d="M11.008 0c-2.985 0-3.36.013-4.532.066-1.17.054-1.969.24-2.668.511a5.382 5.382 0 0 0-1.947 1.268A5.396 5.396 0 0 0 .592 3.792C.32 4.49.134 5.29.082 6.458.029 7.632.016 8.007.016 10.992s.013 3.358.066 4.531c.054 1.17.24 1.969.51 2.668a5.386 5.386 0 0 0 1.268 1.947 5.392 5.392 0 0 0 1.947 1.269c.7.271 1.498.457 2.668.51 1.173.054 1.547.067 4.532.067 2.985 0 3.359-.013 4.531-.067 1.17-.053 1.97-.239 2.67-.51a5.378 5.378 0 0 0 1.945-1.269 5.395 5.395 0 0 0 1.269-1.947c.27-.7.456-1.498.51-2.668.053-1.172.067-1.546.067-4.531 0-2.985-.014-3.36-.066-4.532-.055-1.17-.24-1.97-.511-2.668a5.394 5.394 0 0 0-1.269-1.947A5.372 5.372 0 0 0 18.207.577c-.7-.272-1.5-.457-2.67-.51C14.364.012 13.99 0 11.005 0h.003zm-.984 1.98h.986c2.935 0 3.283.011 4.441.064 1.072.049 1.654.228 2.041.379a3.4 3.4 0 0 1 1.263.822c.385.384.623.75.823 1.264.15.387.33.968.378 2.04.053 1.159.065 1.507.065 4.44 0 2.934-.012 3.282-.065 4.44-.049 1.072-.228 1.654-.378 2.04-.2.514-.438.88-.823 1.264a3.4 3.4 0 0 1-1.263.822c-.387.15-.969.33-2.04.378-1.16.053-1.507.065-4.442.065-2.935 0-3.283-.012-4.442-.065-1.072-.049-1.653-.228-2.04-.379a3.395 3.395 0 0 1-1.265-.822 3.408 3.408 0 0 1-.822-1.263c-.15-.387-.33-.969-.379-2.04-.053-1.16-.063-1.507-.063-4.443 0-2.935.01-3.281.063-4.44.049-1.071.228-1.653.379-2.04.199-.513.437-.88.822-1.265a3.411 3.411 0 0 1 1.264-.822c.388-.151.97-.33 2.041-.38 1.014-.045 1.407-.059 3.456-.061v.003zm6.853 1.826a1.319 1.319 0 1 0 0 2.638 1.319 1.319 0 0 0 0-2.639zm-5.868 1.542a5.645 5.645 0 1 0 0 11.29 5.645 5.645 0 0 0 0-11.29zm0 1.98a3.664 3.664 0 1 1 0 7.328 3.664 3.664 0 0 1 0-7.328z"/></svg>